<?xml version="1.0" encoding="UTF-8" standalone="no"?>
<!DOCTYPE svg PUBLIC "-//W3C//DTD SVG 1.1//EN" "http://www.w3.org/Graphics/SVG/1.1/DTD/svg11.dtd">
<svg width="100%" height="100%" viewBox="0 0 106 138" version="1.1" xmlns="http://www.w3.org/2000/svg" xmlns:xlink="http://www.w3.org/1999/xlink" xml:space="preserve" xmlns:serif="http://www.serif.com/" style="fill-rule:evenodd;clip-rule:evenodd;stroke-linejoin:round;stroke-miterlimit:1.41421;">
    <g transform="matrix(1,0,0,1,-9.53463,-5.37932)">
        <path d="M106.849,137.501L106.849,139.23C106.849,139.533 106.811,139.832 106.739,140.122C106.606,141.696 105.286,142.932 103.677,142.932C89.637,142.932 28.137,142.932 14.139,142.932C12.403,142.932 10.822,141.933 10.078,140.364C10.078,140.364 10.078,140.363 10.078,140.363C9.72,139.609 9.535,138.785 9.535,137.95C9.535,129.463 9.535,81.227 9.535,81.227L9.535,22.094C9.535,22.094 9.535,21.044 9.535,20.622C9.535,6.4 19.203,5.379 24.777,5.379C26.317,5.379 31.224,5.379 31.224,5.379L110.225,5.379C112.768,5.38 114.829,7.44 114.829,9.983L114.829,131.046C114.829,132.028 114.439,132.97 113.745,133.664C113.168,134.24 112.421,134.607 111.623,134.715C111.623,134.715 111.623,35.882 111.623,15.228C111.623,14.232 111.227,13.276 110.523,12.572C109.818,11.868 108.863,11.472 107.867,11.472C90.771,11.472 21.136,11.472 21.136,11.472L15.713,17.238L101.816,17.238C104.542,17.238 106.751,19.447 106.751,22.172L106.751,137.501L106.849,137.501ZM78.328,122.008C77.142,119.91 74.293,118.096 70.426,116.85L70.202,114.236C69.543,114.885 68.884,115.534 68.227,116.185C66.939,115.868 65.566,115.609 64.127,115.416C66.021,113.534 67.919,111.662 69.821,109.799L69.21,102.665C65.067,106.754 60.958,110.874 56.872,115.029C55.064,115.071 53.317,115.213 51.659,115.444C57.335,109.636 63.063,103.884 68.829,98.224L68.213,91.03L45.823,113.419L45.557,116.851C41.691,118.098 38.843,119.911 37.659,122.008L78.328,122.008ZM67.83,86.559L46.231,108.157L46.932,99.127L67.172,78.887L67.83,86.559ZM66.789,74.416L47.34,93.865L48.06,84.573L60.656,71.978L66.58,71.978L66.789,74.416ZM48.468,79.311L49.037,71.978L55.801,71.978L48.468,79.311ZM65.933,66.781L65.933,55.988L50.054,55.988L50.054,66.781L48.663,66.781C47.963,66.781 47.394,67.349 47.394,68.049C47.394,68.05 47.394,68.05 47.394,68.05C47.394,68.751 47.963,69.319 48.663,69.319L67.323,69.319C68.024,69.318 68.591,68.751 68.591,68.05C68.591,68.05 68.591,68.05 68.591,68.049C68.591,67.349 68.024,66.781 67.323,66.781L65.933,66.781ZM73.505,66.406C72.952,66.086 72.763,65.379 73.082,64.826L73.082,64.826C73.401,64.273 74.109,64.083 74.662,64.403C75.686,64.994 77.267,65.907 78.291,66.498C78.844,66.817 79.033,67.524 78.714,68.078C78.394,68.631 77.687,68.821 77.134,68.501C76.11,67.91 74.529,66.997 73.505,66.406ZM37.272,68.078C37.592,68.631 38.299,68.82 38.852,68.501C39.876,67.91 41.457,66.997 42.481,66.406C43.034,66.086 43.223,65.379 42.904,64.826L42.904,64.826C42.585,64.273 41.878,64.083 41.324,64.403C40.301,64.994 38.719,65.907 37.695,66.498C37.143,66.817 36.953,67.524 37.272,68.078L37.272,68.078ZM57.314,56.843L57.314,66.792L51.162,66.792L51.162,56.843L57.314,56.843ZM64.824,56.843L64.824,66.792L58.672,66.792L58.672,56.843L64.824,56.843ZM41.324,59.7C41.878,60.019 42.585,59.829 42.904,59.276C42.904,59.276 42.904,59.276 42.904,59.276C43.223,58.723 43.034,58.016 42.481,57.696C41.457,57.105 39.876,56.193 38.852,55.601C38.299,55.282 37.592,55.471 37.272,56.024L37.272,56.025C36.953,56.578 37.142,57.285 37.695,57.604C38.719,58.195 40.301,59.108 41.324,59.7ZM74.662,59.7C74.109,60.019 73.401,59.829 73.082,59.276L73.082,59.276C72.763,58.723 72.952,58.016 73.505,57.696C74.529,57.105 76.11,56.193 77.134,55.601C77.687,55.282 78.394,55.471 78.714,56.024L78.714,56.025C79.033,56.578 78.844,57.285 78.291,57.604C77.267,58.195 75.686,59.108 74.662,59.7ZM65.849,51.354C65.348,47.913 62.637,45.185 59.204,44.658L59.204,41.899C59.204,41.578 59.077,41.27 58.85,41.043C58.773,40.966 58.686,40.9 58.593,40.847L57.993,36.547L57.393,40.847C57.3,40.9 57.214,40.966 57.136,41.043C56.909,41.27 56.782,41.578 56.782,41.899L56.782,44.658C53.349,45.185 50.637,47.913 50.137,51.354L48.545,51.354C48.24,51.354 47.947,51.476 47.732,51.692C47.516,51.907 47.394,52.2 47.394,52.505L47.394,52.506C47.394,52.811 47.516,53.104 47.732,53.32C47.947,53.536 48.24,53.657 48.545,53.657L67.441,53.657C67.746,53.657 68.039,53.535 68.254,53.32C68.47,53.104 68.591,52.811 68.591,52.506L68.591,52.505C68.591,52.2 68.47,51.907 68.254,51.692C68.039,51.476 67.746,51.355 67.441,51.354L65.849,51.354Z"/>
    </g>
</svg>
