<?xml version="1.0" encoding="UTF-8" standalone="no"?>
<!DOCTYPE svg PUBLIC "-//W3C//DTD SVG 1.1//EN" "http://www.w3.org/Graphics/SVG/1.1/DTD/svg11.dtd">
<svg width="100%" height="100%" viewBox="0 0 300 300" version="1.1" xmlns="http://www.w3.org/2000/svg" xmlns:xlink="http://www.w3.org/1999/xlink" xml:space="preserve" xmlns:serif="http://www.serif.com/" style="fill-rule:evenodd;clip-rule:evenodd;stroke-linejoin:round;stroke-miterlimit:1.41421;">
    <rect x="0" y="0" width="300" height="300" style="fill:url(#_Radial1);"/>
    <path d="M98.142,244.8L186.175,300L300,300L300,110.512L151.566,20.903L150,32.4L148.799,42.966L130.602,61.455L131.043,65.708L130.999,71.924L130.848,100.451L129.828,100.467L129.083,104.003L126.865,133.403L118.998,231.855C118.998,231.855 118.228,232.315 117.822,232.464C103.939,237.561 98.142,244.8 98.142,244.8Z" style="fill:url(#_Linear2);"/>
    <path d="M129.002,105.068L127.71,122.194L127.265,122.898L97.501,104.328L111.284,94.346L129.002,105.068Z" style="fill-opacity:0.25098;"/>
    <g transform="matrix(1,0,0,1,93.3141,-23.4351)">
        <path d="M129.002,105.068L119.542,117.781L97.723,104.167L111.284,94.346L129.002,105.068Z" style="fill:url(#_Linear3);"/>
    </g>
    <path d="M132.04,97.302L98.185,76.172L101.101,71.028L106.869,74.189L131.987,89.388L132.04,97.302Z" style="fill-opacity:0.25098;"/>
    <g transform="matrix(1,0,0,1,93.7474,22.9925)">
        <path d="M131.987,89.388L128.779,95.267L98.185,76.172L101.101,71.028L106.869,74.189L131.987,89.388Z" style="fill:url(#_Linear4);"/>
    </g>
    <g id="farol" transform="matrix(1,0,0,1,151.566,133.403)">
        <g transform="matrix(1,0,0,1,-55,-112.5)">
            <clipPath id="_clip5">
                <rect x="0" y="0" width="110" height="225"/>
            </clipPath>
            <g clip-path="url(#_clip5)">
                <g transform="matrix(1,0,0,1,-116.905,-52.0244)">
                    <path d="M224.964,276.112L118.326,276.112C121.431,270.613 128.9,265.859 139.037,262.59L139.734,253.591L198.442,194.884L200.058,213.749C184.94,228.59 169.92,243.672 155.036,258.9C159.383,258.296 163.965,257.922 168.706,257.813C179.419,246.919 190.194,236.114 201.057,225.394L202.66,244.1C197.672,248.984 192.695,253.894 187.729,258.828C191.501,259.334 195.101,260.013 198.479,260.844C200.203,259.138 201.929,257.435 203.657,255.734L204.245,262.587C214.385,265.856 221.856,270.611 224.964,276.112ZM197.437,183.161L140.804,239.793L142.641,216.116L195.712,163.044L197.437,183.161ZM194.708,151.321L143.711,202.318L145.6,177.954L178.626,144.928L194.16,144.928L194.708,151.321ZM146.67,164.156L148.161,144.928L165.898,144.928L146.67,164.156ZM150.827,131.301L150.827,103.002L192.463,103.002L192.463,131.301L196.109,131.301C197.946,131.301 199.435,132.79 199.435,134.627C199.435,134.628 199.435,134.629 199.435,134.629C199.435,136.466 197.946,137.955 196.109,137.955C186.219,137.955 157.07,137.955 147.18,137.955C145.344,137.955 143.854,136.466 143.854,134.629C143.854,134.629 143.854,134.628 143.854,134.627C143.854,132.79 145.344,131.301 147.18,131.301L150.827,131.301ZM212.319,130.318C210.869,129.48 210.372,127.626 211.21,126.176L211.21,126.175C212.047,124.725 213.902,124.228 215.352,125.065C218.037,126.615 222.183,129.009 224.867,130.559C226.318,131.396 226.814,133.25 225.977,134.701C225.139,136.152 223.285,136.649 221.835,135.811C219.15,134.261 215.004,131.867 212.319,130.318ZM130.97,130.318C132.42,129.48 132.917,127.626 132.08,126.176L132.079,126.175C131.242,124.725 129.388,124.228 127.937,125.065C125.253,126.615 121.106,129.009 118.422,130.559C116.972,131.396 116.475,133.25 117.312,134.701L117.313,134.701C118.15,136.152 120.004,136.649 121.454,135.811C124.139,134.261 128.285,131.867 130.97,130.318ZM169.864,105.243L153.733,105.243L153.733,131.329L169.864,131.329L169.864,105.243ZM189.556,105.243L173.425,105.243L173.425,131.329L189.556,131.329L189.556,105.243ZM127.937,112.733C129.388,113.57 131.242,113.073 132.079,111.623C132.079,111.623 132.079,111.622 132.08,111.622C132.917,110.172 132.42,108.318 130.97,107.48C128.285,105.93 124.139,103.537 121.454,101.987C120.004,101.149 118.15,101.646 117.313,103.096L117.312,103.097C116.475,104.547 116.972,106.402 118.422,107.239C121.106,108.789 125.253,111.183 127.937,112.733ZM215.352,112.733C213.902,113.57 212.047,113.073 211.21,111.623L211.21,111.622C210.372,110.172 210.869,108.318 212.319,107.48C215.004,105.93 219.15,103.537 221.835,101.987C223.285,101.149 225.139,101.646 225.977,103.096L225.977,103.097C226.814,104.547 226.318,106.402 224.867,107.239C222.183,108.789 218.037,111.183 215.352,112.733ZM173.217,63.3C173.462,63.439 173.689,63.611 173.891,63.814C174.487,64.409 174.821,65.217 174.821,66.059L174.821,73.293C183.822,74.674 190.932,81.828 192.245,90.851L196.417,90.851C197.217,90.851 197.985,91.169 198.551,91.735C199.117,92.301 199.435,93.069 199.435,93.869L199.435,93.87C199.435,94.67 199.117,95.438 198.551,96.004C197.985,96.57 197.217,96.888 196.417,96.888C186.739,96.888 156.55,96.888 146.872,96.888C146.072,96.888 145.304,96.57 144.738,96.004C144.172,95.438 143.854,94.67 143.854,93.87L143.854,93.869C143.854,93.069 144.172,92.301 144.738,91.735C145.304,91.169 146.072,90.851 146.872,90.851L151.044,90.851C152.357,81.828 159.467,74.674 168.468,73.293L168.468,66.059C168.468,65.217 168.802,64.409 169.398,63.814C169.601,63.611 169.827,63.439 170.072,63.3L171.645,52.024L173.217,63.3Z" style="fill:rgb(237,147,255);"/>
                </g>
            </g>
        </g>
    </g>
    <defs>
        <radialGradient id="_Radial1" cx="0" cy="0" r="1" gradientUnits="userSpaceOnUse" gradientTransform="matrix(150,0,0,150,150,150)"><stop offset="0" style="stop-color:rgb(232,119,255);stop-opacity:1"/><stop offset="1" style="stop-color:rgb(167,98,181);stop-opacity:1"/></radialGradient>
        <linearGradient id="_Linear2" x1="0" y1="0" x2="1" y2="0" gradientUnits="userSpaceOnUse" gradientTransform="matrix(148.434,89.6093,-89.6093,148.434,151.566,20.9029)"><stop offset="0" style="stop-color:black;stop-opacity:0.25098"/><stop offset="1" style="stop-color:black;stop-opacity:0.101961"/></linearGradient>
        <linearGradient id="_Linear3" x1="0" y1="0" x2="1" y2="0" gradientUnits="userSpaceOnUse" gradientTransform="matrix(19.2979,12.0241,-12.0241,19.2979,105.757,98.3486)"><stop offset="0" style="stop-color:black;stop-opacity:0.25098"/><stop offset="1" style="stop-color:black;stop-opacity:0.101961"/></linearGradient>
        <linearGradient id="_Linear4" x1="0" y1="0" x2="1" y2="0" gradientUnits="userSpaceOnUse" gradientTransform="matrix(30.772,18.6674,-18.6674,30.772,99.6631,73.5645)"><stop offset="0" style="stop-color:black;stop-opacity:0.25098"/><stop offset="1" style="stop-color:black;stop-opacity:0.101961"/></linearGradient>
    </defs>
</svg>
